<?xml version="1.0"?>
<?xml-stylesheet type="text/css" href="../characters.css"?>
<svg xmlns="http://www.w3.org/2000/svg" version="1.1" viewBox="0 0 1024 1024">
  <g class="foreground-stroke">
    <path id="stroke1" d="M 350 329 Q 380 307 449 286 Q 465 285 468 277 Q 471 267 458 257 Q 439 244 396 232 Q 381 226 370 228 Q 363 232 363 243 Q 364 279 200 373 Q 196 382 201 384 Q 213 384 290 354 Q 303 350 316 344 L 350 329 Z"/>
    <path id="stroke2" d="M 584 434 Q 666 415 734 403 Q 746 404 754 389 Q 755 376 729 367 Q 693 346 622 373 Q 598 380 575 389 L 537 401 Q 518 405 500 412 Q 442 428 386 443 L 337 454 Q 327 454 179 484 Q 148 491 173 508 Q 212 535 241 524 Q 287 511 339 496 L 387 484 Q 460 462 545 443 L 584 434 Z"/>
    <path id="stroke3" d="M 386 443 Q 387 407 398 383 Q 405 365 390 352 Q 371 336 350 329 L 316 344 Q 315 344 316 345 Q 338 381 337 422 Q 337 438 337 454 L 339 496 Q 340 557 339 611 L 338 659 Q 337 720 334 767 Q 333 785 323 791 Q 317 795 250 781 Q 238 778 239 786 Q 240 792 249 800 Q 309 858 328 894 Q 341 910 357 897 Q 390 864 390 774 Q 387 731 387 635 L 387 594 Q 387 545 387 484 L 386 443 Z"/>
    <path id="stroke4" d="M 339 611 Q 254 639 161 671 Q 139 678 101 679 Q 86 680 85 693 Q 84 708 94 716 Q 119 734 157 753 Q 169 756 182 746 Q 239 701 338 659 L 387 635 Q 477 586 484 582 Q 499 573 498 563 Q 492 557 479 560 Q 434 576 387 594 L 339 611 Z"/>
    <path id="stroke5" d="M 635 705 Q 690 825 797 914 Q 876 962 898 947 Q 920 937 914 897 Q 905 866 899 748 Q 900 726 894 722 Q 890 721 884 740 Q 857 825 838 840 Q 823 844 785 812 Q 710 745 670 674 L 644 621 Q 599 519 584 434 L 575 389 Q 547 241 576 148 Q 586 121 543 95 Q 509 73 489 75 Q 470 76 479 105 Q 503 148 507 193 Q 517 299 537 401 L 545 443 Q 573 566 612 655 L 635 705 Z"/>
    <path id="stroke6" d="M 612 655 Q 558 703 452 762 Q 442 768 448 772 Q 455 776 468 774 Q 523 765 574 740 Q 608 725 635 705 L 670 674 Q 706 640 747 583 Q 762 564 778 546 Q 788 539 785 526 Q 781 514 753 490 Q 734 472 723 472 Q 708 473 707 489 Q 701 546 644 621 L 612 655 Z"/>
    <path id="stroke7" d="M 687 231 Q 718 252 754 277 Q 770 287 786 285 Q 798 282 801 268 Q 802 252 789 222 Q 780 203 746 192 Q 665 174 651 185 Q 647 189 651 203 Q 655 213 687 231 Z"/>
  </g>
</svg>
